<?xml version="1.0" ?><svg id="icon" style="enable-background:new 0 0 512 512;" version="1.1" viewBox="0 0 512 512" xml:space="preserve" xmlns="http://www.w3.org/2000/svg" xmlns:xlink="http://www.w3.org/1999/xlink"><g><path d="M429.8173828,75.1826172H82.1826172c-3.8662109,0-7,3.1337891-7,7v347.6347656c0,3.8662109,3.1337891,7,7,7h347.6347656   c3.8662109,0,7-3.1337891,7-7V82.1826172C436.8173828,78.3164063,433.6835938,75.1826172,429.8173828,75.1826172z    M422.8173828,422.8173828H89.1826172v-78.949585l117.8789063-91.3970947l106.9719238,82.4626465   c0.0102539,0.0083008,0.0209961,0.0158691,0.0314941,0.0241699l108.7524414,83.8352051V422.8173828z M422.8173828,401.1162109   l-92.9189453-71.6293945l92.9189453-71.6293945V401.1162109z M422.8173828,240.1809082l-104.3842773,80.4677734   l-107.1108398-82.5695801c-2.5234375-1.9453125-6.0449219-1.9414063-8.5625,0.0117188L89.1826172,326.1523438V89.1826172   h333.6347656V240.1809082z"/><path d="M302.4951172,231.2910156c29.4970703,0,53.4951172-23.9980469,53.4951172-53.4951172   s-23.9980469-53.4951172-53.4951172-53.4951172S249,148.2988281,249,177.7958984S272.9980469,231.2910156,302.4951172,231.2910156z    M302.4951172,138.3007813c21.7773438,0,39.4951172,17.7177734,39.4951172,39.4951172   s-17.7177734,39.4951172-39.4951172,39.4951172S263,199.5732422,263,177.7958984S280.7177734,138.3007813,302.4951172,138.3007813z   "/></g></svg>