<?xml version="1.0" ?><svg data-name="Layer 1" id="Layer_1" viewBox="0 0 32 32" xmlns="http://www.w3.org/2000/svg" xmlns:xlink="http://www.w3.org/1999/xlink"><defs><style>.cls-1{fill:url(#linear-gradient);}.cls-2{fill:url(#linear-gradient-2);}.cls-3{fill:url(#linear-gradient-3);}.cls-4{fill:#1282ff;}</style><linearGradient gradientUnits="userSpaceOnUse" id="linear-gradient" x1="16" x2="16" y1="4" y2="8"><stop offset="0.24" stop-color="#cdeaff"/><stop offset="0.34" stop-color="#c2e4ff"/><stop offset="0.5" stop-color="#a5d5ff"/><stop offset="0.72" stop-color="#76bcff"/><stop offset="0.98" stop-color="#369aff"/><stop offset="1" stop-color="#3197ff"/></linearGradient><linearGradient id="linear-gradient-2" xlink:href="#linear-gradient" y1="14" y2="18"/><linearGradient id="linear-gradient-3" xlink:href="#linear-gradient" y1="24" y2="28"/></defs><title/><circle class="cls-1" cx="16" cy="6" r="2"/><circle class="cls-2" cx="16" cy="16" r="2"/><circle class="cls-3" cx="16" cy="26" r="2"/><path class="cls-4" d="M16,9a3,3,0,1,0-3-3A3,3,0,0,0,16,9Zm0-4.46A1.46,1.46,0,1,1,14.54,6,1.46,1.46,0,0,1,16,4.54Z"/><path class="cls-4" d="M16,19a3,3,0,1,0-3-3A3,3,0,0,0,16,19Zm0-4.46A1.46,1.46,0,1,1,14.54,16,1.46,1.46,0,0,1,16,14.54Z"/><path class="cls-4" d="M16,29a3,3,0,1,0-3-3A3,3,0,0,0,16,29Zm0-4.46A1.46,1.46,0,1,1,14.54,26,1.46,1.46,0,0,1,16,24.54Z"/></svg>