<svg xmlns="http://www.w3.org/2000/svg" data-name="Layer 1" viewBox="0 0 512 512"><path d="M412.327,317.394v-76.65a158.8,158.8,0,0,0-46.013-112.409A156.334,156.334,0,0,0,308,90.96V79.092a52.849,52.849,0,0,0-105.7,0V90.96a156.338,156.338,0,0,0-58.314,37.375A158.8,158.8,0,0,0,97.977,240.744v77.275c-30.953,12.159-52.135,47.861-52.135,80.426a10,10,0,0,0,10,10H180.721c.6,42.018,35.779,77.311,77.374,77.311s76.771-35.293,77.373-77.311H456.156a10,10,0,0,0,10-10c0-20.007-7.725-40.857-21.194-57.2C435.578,329.851,424.391,321.748,412.327,317.394ZM222.3,79.092a32.848,32.848,0,1,1,65.7,0v6.174a157.525,157.525,0,0,0-65.7,0V79.092ZM117.978,240.744c0-76.612,61.536-138.941,137.175-138.941s137.175,62.329,137.175,138.941V313.7c-.309,0-.617-.014-.927-.014H120.6c-.879,0-1.752.026-2.622.063ZM258.1,465.756c-30.756,0-56.777-26.134-57.374-57.311H315.469C314.872,439.622,288.852,465.756,258.1,465.756ZM66.588,388.445c4.724-31.513,31.058-54.757,54.012-54.757H391.4c22.954,0,49.288,23.244,54.012,54.757Z"/></svg>